<?xml version="1.0" encoding="iso-8859-1"?>
<!-- Generator: Adobe Illustrator 19.0.0, SVG Export Plug-In . SVG Version: 6.00 Build 0)  -->
<svg version="1.1" id="Capa_1" xmlns="http://www.w3.org/2000/svg" xmlns:xlink="http://www.w3.org/1999/xlink" x="0px" y="0px"
	 viewBox="0 0 512 512" style="enable-background:new 0 0 512 512;" xml:space="preserve">
<g transform="matrix(1.25 0 0 -1.25 0 45)">
	<g>
		<path style="fill:#FFCC4D;" d="M311.17-190.852c0,18.926-46.03,34.265-102.796,34.265s-102.796-15.34-102.796-34.265
			s46.03-34.265,102.796-34.265S311.17-209.777,311.17-190.852z"/>
		<path style="fill:#FFCC4D;" d="M265.638-336.502c11.376,37.143,36.195,111.385,36.195,111.385h-93.46h-9.347h-84.099
			c0,0,15.442-74.242,26.841-111.385c11.41-37.166,52.597-37.098,61.941-37.098C222.384-373.6,254.239-373.668,265.638-336.502z"/>
	</g>
	<path style="fill:#FFAC33;" d="M289.417-262.593c4.004,12.161,7.506,22.715,9.762,29.498c-1.709,2.822-4.24,5.498-7.595,7.978
		H199.03h-73.858c-3.846-2.845-6.612-5.947-8.293-9.233c1.251-5.833,3.033-14.039,5.148-23.478
		c12.488-13.313,41.405-24.397,86.342-24.397C247.822-282.226,274.93-273.685,289.417-262.593z"/>
	<g>
		<path style="fill:#FFCC4D;" d="M105.578-190.852v-34.265c0-18.926,46.03-34.265,102.796-34.265s102.796,15.34,102.796,34.265
			v34.265H105.578z"/>
		<path style="fill:#F4900C;" d="M208.369-168.008c-51.615,0-93.442-12.781-93.442-28.554s41.826-28.554,93.442-28.554
			s93.465,12.781,93.465,28.554S259.984-168.008,208.369-168.008z"/>
		<path style="fill:#FFE8B6;" d="M310.262-121.201c2.462,10.695,1.586,22.145-3.163,33.536
			c-4.594,11.019-12.503,19.766-22.151,25.622c2.142,8.074,1.554,16.759-2.232,25.398c-5.7,13.02-18.024,21.729-31.937,24.177
			c1.682,3.873,2.215,8.728,0.238,14.672C244.22,22.557,217.093,8.873,196.751,36C179.915,25.9,176.315,10.816,177.1-1.815
			C161.54-4.57,152.608-7.93,152.608-7.93v-0.012c-8.734-3.735-15.61-12.781-15.61-23.346c0-5.593,1.894-10.756,4.975-14.935
			l-5.367-2.016l0.029-0.023c-15.807-5.905-26.947-20.182-26.947-36.892c0-7.05,1.999-13.666,5.482-19.409
			c-19.148-8.613-32.445-27.392-32.445-49.211c0-28.706,22.992-52.196,52.074-54.112c30.659-9.158,91.061-6.494,137.351,1.331
			c27.081,4.569,54.722,20.788,54.722,48.257C326.875-143.552,320.454-130.31,310.262-121.201z"/>
	</g>
	<g>
		<path style="fill:#FFD983;" d="M114.641-103.667c7.221-12.656,21.602-21.292,38.166-21.292
			c54.139,0,109.364,35.053,109.364,35.053c18.066,10.689,27.068,27.799,23.091,45.551
			C216.303-89.194,152.941-102.24,114.641-103.667z"/>
		<path style="fill:#FFD983;" d="M310.887-100.771c-23.064-33.064-112.82-62.069-139.634-69.663
			c-25.533-7.231-63.993-9.137-84.44-3.678c8.296-19.886,28.372-33.918,51.831-33.918c70.187,0,141.824,47.777,141.824,47.777
			C303.034-146.213,314.693-124.024,310.887-100.771z"/>
		<path style="fill:#FFD983;" d="M137.889-37.364c2.717-10.984,12.628-19.121,24.455-19.121c8.078,0,16.2,1.449,23.815,3.605
			c3.257,1.007,6.508,2.078,9.735,3.201c17.471,6.52,30.366,15.376,30.366,15.376c12.062,7.744,24.477,21.393,24.477,21.393
			s4.248,9.457-2.736,15.041C228.045-17.794,164.33-37.587,137.889-37.364z"/>
	</g>
</g>
<g>
</g>
<g>
</g>
<g>
</g>
<g>
</g>
<g>
</g>
<g>
</g>
<g>
</g>
<g>
</g>
<g>
</g>
<g>
</g>
<g>
</g>
<g>
</g>
<g>
</g>
<g>
</g>
<g>
</g>
</svg>
